<?xml version="1.0" encoding="UTF-8" standalone="no"?>
<!DOCTYPE svg PUBLIC "-//W3C//DTD SVG 1.1//EN" "http://www.w3.org/Graphics/SVG/1.1/DTD/svg11.dtd">
<svg xmlns="http://www.w3.org/2000/svg" version="1.1" viewBox="0.00 0.00 1280.00 1280.00">
<g stroke-width="2.00" fill="none" stroke-linecap="butt">
<path stroke="#934559" vector-effect="non-scaling-stroke" d="
  M 809.25 442.84
  Q 799.46 426.72 785.74 415.70"
/>
<path stroke="#7c3d55" vector-effect="non-scaling-stroke" d="
  M 785.74 415.70
  Q 782.11 411.85 778.27 409.25
  C 753.41 392.47 724.47 382.05 694.57 380.02
  Q 643.30 376.54 599.57 403.06
  C 572.35 419.57 549.20 444.53 535.82 473.72
  Q 516.14 516.68 521.22 562.74
  Q 525.29 599.70 547.63 632.57"
/>
<path stroke="#934559" vector-effect="non-scaling-stroke" d="
  M 547.63 632.57
  C 583.02 682.21 639.97 709.21 700.49 704.01
  C 744.00 700.27 782.06 678.19 809.33 644.39"
/>
<path stroke="#e4425a" vector-effect="non-scaling-stroke" d="
  M 785.74 415.70
  Q 779.53 414.53 770.26 410.91
  C 763.24 408.17 754.15 406.33 746.08 405.50
  Q 716.96 402.53 688.47 408.67
  C 641.87 418.72 603.41 452.63 580.94 493.72
  C 567.40 518.49 561.46 546.14 563.86 574.23
  C 566.44 604.40 577.74 634.33 594.30 659.46
  A 0.65 0.65 0.0 0 1 593.39 660.36
  Q 574.40 647.53 554.57 636.35
  Q 554.44 636.27 551.31 634.23
  Q 549.51 633.06 547.63 632.57"
/>
</g>
<path fill="#2a3f53" d="
  M 809.25 442.84
  Q 799.46 426.72 785.74 415.70
  Q 782.11 411.85 778.27 409.25
  C 753.41 392.47 724.47 382.05 694.57 380.02
  Q 643.30 376.54 599.57 403.06
  C 572.35 419.57 549.20 444.53 535.82 473.72
  Q 516.14 516.68 521.22 562.74
  Q 525.29 599.70 547.63 632.57
  C 583.02 682.21 639.97 709.21 700.49 704.01
  C 744.00 700.27 782.06 678.19 809.33 644.39
  Q 839.72 664.94 869.23 686.52
  C 874.36 690.28 869.24 695.97 866.63 699.63
  C 854.60 716.53 841.71 731.88 826.43 745.32
  C 771.67 793.49 700.27 815.53 627.46 808.12
  C 563.62 801.62 505.66 772.98 461.21 727.41
  C 422.01 687.21 397.84 636.38 390.29 580.50
  C 385.83 547.42 387.39 513.62 395.59 481.30
  Q 414.23 407.87 466.47 353.36
  Q 473.46 346.07 480.97 339.62
  Q 526.69 300.34 585.06 283.39
  Q 616.72 274.20 652.74 274.55
  Q 672.56 274.74 685.24 276.52
  Q 708.91 279.83 731.72 286.73
  C 767.57 297.58 799.90 316.74 827.78 341.59
  Q 854.52 365.42 871.64 397.82
  A 1.86 1.86 0.0 0 1 871.05 400.22
  L 809.25 442.84
  Z"
/>
<path fill="#cd3a56" d="
  M 785.74 415.70
  Q 779.53 414.53 770.26 410.91
  C 763.24 408.17 754.15 406.33 746.08 405.50
  Q 716.96 402.53 688.47 408.67
  C 641.87 418.72 603.41 452.63 580.94 493.72
  C 567.40 518.49 561.46 546.14 563.86 574.23
  C 566.44 604.40 577.74 634.33 594.30 659.46
  A 0.65 0.65 0.0 0 1 593.39 660.36
  Q 574.40 647.53 554.57 636.35
  Q 554.44 636.27 551.31 634.23
  Q 549.51 633.06 547.63 632.57
  Q 525.29 599.70 521.22 562.74
  Q 516.14 516.68 535.82 473.72
  C 549.20 444.53 572.35 419.57 599.57 403.06
  Q 643.30 376.54 694.57 380.02
  C 724.47 382.05 753.41 392.47 778.27 409.25
  Q 782.11 411.85 785.74 415.70
  Z"
/>
<path fill="#fb4a5e" d="
  M 785.74 415.70
  Q 799.46 426.72 809.25 442.84
  C 805.98 445.37 802.86 448.10 799.54 450.34
  Q 750.72 483.21 702.08 516.33
  Q 698.56 518.72 688.84 525.85
  C 684.49 529.04 681.29 532.38 680.32 537.86
  C 678.54 547.98 682.94 554.12 691.12 559.79
  Q 721.42 580.82 750.96 602.86
  C 770.09 617.14 789.81 630.70 809.33 644.39
  C 782.06 678.19 744.00 700.27 700.49 704.01
  C 639.97 709.21 583.02 682.21 547.63 632.57
  Q 549.51 633.06 551.31 634.23
  Q 554.44 636.27 554.57 636.35
  Q 574.40 647.53 593.39 660.36
  A 0.65 0.65 0.0 0 0 594.30 659.46
  C 577.74 634.33 566.44 604.40 563.86 574.23
  C 561.46 546.14 567.40 518.49 580.94 493.72
  C 603.41 452.63 641.87 418.72 688.47 408.67
  Q 716.96 402.53 746.08 405.50
  C 754.15 406.33 763.24 408.17 770.26 410.91
  Q 779.53 414.53 785.74 415.70
  Z"
/>
<path fill="#137180" d="
  M 327.39 897.69
  C 310.64 888.74 290.56 887.41 273.89 896.90
  C 246.21 912.66 243.92 948.92 266.31 970.20
  C 282.25 985.35 309.01 984.66 328.85 978.18
  A 1.64 1.64 0.0 0 1 331.00 979.75
  Q 330.94 989.26 330.80 999.25
  C 330.77 1001.17 329.77 1001.85 327.95 1002.27
  Q 311.07 1006.20 293.74 1005.07
  C 266.38 1003.30 242.92 986.63 232.95 961.00
  C 223.08 935.63 229.04 906.21 248.44 887.07
  C 268.94 866.86 300.10 862.58 326.89 872.43
  C 329.16 873.27 329.33 874.25 329.34 876.50
  Q 329.43 886.88 329.08 896.71
  A 1.15 1.15 0.0 0 1 327.39 897.69
  Z"
/>
<path fill="#2a3f53" d="
  M 700.26 956.48
  Q 700.14 956.97 700.14 957.75
  Q 699.94 979.36 700.15 1001.02
  C 700.19 1004.93 696.96 1004.02 694.44 1004.12
  Q 685.19 1004.47 676.00 1004.05
  A 2.35 2.35 0.0 0 1 673.76 1001.71
  Q 673.74 998.15 673.79 994.25
  Q 674.64 927.48 674.59 874.25
  Q 674.59 871.34 675.18 869.05
  Q 675.34 868.45 675.96 868.45
  L 698.54 868.40
  Q 699.22 868.40 699.60 868.97
  Q 700.40 870.13 700.38 872.00
  Q 700.09 897.62 700.14 923.25
  Q 700.14 925.18 700.27 927.10
  A 1.05 1.04 -79.5 0 0 700.87 927.98
  Q 701.86 928.45 703.50 928.42
  Q 730.08 927.87 756.51 928.37
  A 1.62 1.62 0.0 0 0 758.16 926.76
  L 758.45 870.14
  A 2.15 2.15 0.0 0 1 760.62 868.00
  L 783.70 868.13
  A 1.57 1.57 0.0 0 1 785.26 869.70
  L 785.28 1002.34
  A 1.37 1.37 0.0 0 1 783.91 1003.71
  L 759.31 1003.64
  A 0.85 0.84 -7.4 0 1 758.51 1003.03
  Q 757.99 1001.11 758.00 999.50
  Q 758.11 978.11 758.03 957.56
  A 2.55 2.55 0.0 0 0 755.48 955.02
  L 702.15 955.00
  A 1.95 1.95 0.0 0 0 700.26 956.48
  Z"
/>
<path fill="#2a3f53" d="
  M 969.51 915.69
  Q 969.81 916.86 970.82 916.20
  Q 991.19 902.89 1014.50 908.25
  C 1029.48 911.70 1042.21 922.04 1048.68 935.99
  C 1056.25 952.32 1053.89 973.47 1041.51 987.23
  C 1023.79 1006.93 987.72 1013.82 969.16 991.28
  A 0.89 0.89 0.0 0 0 967.81 991.27
  L 967.57 991.54
  Q 967.21 991.95 967.22 992.50
  L 967.36 1001.58
  A 1.93 1.92 -0.3 0 1 965.42 1003.53
  L 944.85 1003.36
  A 2.13 2.13 0.0 0 1 942.74 1001.22
  L 943.01 870.12
  A 1.13 1.13 0.0 0 1 944.12 869.00
  L 966.88 868.57
  Q 969.62 868.52 969.56 871.26
  Q 969.14 889.30 969.18 907.66
  C 969.18 909.89 968.89 913.26 969.51 915.69
  Z
  M 1027.4286 958.3443
  A 28.38 24.41 6.3 0 0 1001.8986 930.9674
  A 28.38 24.41 6.3 0 0 971.0114 952.1157
  A 28.38 24.41 6.3 0 0 996.5414 979.4926
  A 28.38 24.41 6.3 0 0 1027.4286 958.3443
  Z"
/>
<path fill="#137180" d="
  M 634.56 909.21
  L 653.67 909.17
  A 2.47 2.47 0.0 0 1 656.14 911.67
  L 655.91 930.18
  A 2.33 2.33 0.0 0 1 653.58 932.48
  L 636.21 932.54
  Q 632.73 932.56 632.73 936.04
  L 632.68 1001.80
  A 2.23 2.22 -89.7 0 1 630.45 1004.02
  L 610.85 1003.97
  A 2.36 2.36 0.0 0 1 608.50 1001.61
  L 608.69 934.89
  Q 608.69 932.60 606.40 932.58
  L 587.95 932.45
  A 2.26 2.26 0.0 0 1 585.71 930.20
  L 585.65 911.03
  Q 585.65 908.46 588.21 908.43
  L 606.97 908.17
  A 1.79 1.79 0.0 0 0 608.74 906.37
  Q 608.68 890.54 608.64 875.00
  Q 608.63 871.71 608.96 869.59
  A 0.76 0.76 0.0 0 1 609.68 868.94
  Q 615.48 868.73 626.73 868.84
  Q 629.65 868.86 631.48 869.31
  A 0.81 0.81 0.0 0 1 632.10 870.10
  L 632.40 907.07
  A 2.16 2.15 89.6 0 0 634.56 909.21
  Z"
/>
<path fill="#137180" d="
  M 380.42 914.95
  Q 392.29 907.32 405.80 907.35
  C 433.87 907.42 451.91 932.91 451.89 959.00
  Q 451.87 990.12 452.06 999.75
  Q 452.11 1001.86 451.67 1003.26
  A 0.91 0.91 0.0 0 1 450.80 1003.90
  L 431.19 1004.01
  A 2.27 2.26 -0.5 0 1 428.91 1001.78
  Q 428.57 981.35 428.58 961.76
  Q 428.59 953.27 427.26 948.88
  C 422.07 931.62 401.55 923.49 386.42 933.93
  C 380.19 938.23 379.55 943.10 379.49 950.96
  Q 379.29 975.55 379.25 1002.11
  A 2.24 2.24 0.0 0 1 376.96 1004.35
  L 358.49 1003.98
  Q 356.00 1003.93 356.00 1001.44
  L 355.98 871.93
  A 1.59 1.58 -89.8 0 1 357.57 870.34
  L 377.42 870.47
  A 1.81 1.80 0.2 0 1 379.22 872.27
  Q 379.23 888.83 379.07 905.49
  Q 379.02 911.21 379.49 914.53
  A 0.61 0.60 -20.4 0 0 380.42 914.95
  Z"
/>
<path fill="#137180" d="
  M 548.12 995.55
  A 0.79 0.79 0.0 0 0 546.83 994.86
  Q 542.15 998.63 536.88 1001.37
  C 525.78 1007.15 509.11 1006.67 497.78 1001.86
  C 454.97 983.69 458.50 921.20 504.22 907.68
  C 518.50 903.46 532.36 906.29 543.95 915.41
  A 0.98 0.97 20.6 0 0 545.53 914.70
  L 545.80 908.93
  A 1.52 1.51 1.4 0 1 547.32 907.49
  L 569.92 907.49
  A 1.68 1.67 0.2 0 1 571.60 909.17
  L 571.11 1002.47
  A 1.80 1.80 0.0 0 1 569.36 1004.26
  Q 559.51 1004.53 550.49 1004.00
  C 547.44 1003.82 547.93 997.67 548.12 995.55
  Z
  M 548.6606 954.2453
  A 28.75 27.31 -3.0 0 0 518.5207 928.4774
  A 28.75 27.31 -3.0 0 0 491.2394 957.2547
  A 28.75 27.31 -3.0 0 0 521.3793 983.0226
  A 28.75 27.31 -3.0 0 0 548.6606 954.2453
  Z"
/>
<path fill="#2a3f53" d="
  M 841.90 963.98
  C 848.39 983.83 879.42 985.31 886.27 964.89
  Q 887.71 960.59 887.70 950.95
  Q 887.70 930.43 887.90 909.34
  A 1.43 1.42 -89.6 0 1 889.33 907.92
  L 911.43 908.08
  Q 913.68 908.09 913.70 910.34
  Q 913.86 930.06 913.80 950.65
  Q 913.77 962.66 912.29 968.71
  C 904.09 1002.25 865.57 1014.70 837.22 998.09
  C 819.61 987.76 814.43 971.44 814.47 952.00
  Q 814.52 931.08 814.36 909.32
  Q 814.35 907.69 815.98 907.69
  L 839.15 907.73
  A 1.43 1.43 0.0 0 1 840.58 909.15
  Q 840.74 927.55 840.61 946.39
  Q 840.51 959.75 841.90 963.98
  Z"
/>
</svg>
