<?xml version="1.0" encoding="UTF-8" standalone="no"?>
<!DOCTYPE svg PUBLIC "-//W3C//DTD SVG 1.1//EN" "http://www.w3.org/Graphics/SVG/1.1/DTD/svg11.dtd">
<svg xmlns="http://www.w3.org/2000/svg" version="1.1" viewBox="0.00 0.00 1024.00 1024.00">
<g stroke-width="2.00" fill="none" stroke-linecap="butt">
<path stroke="#d58390" vector-effect="non-scaling-stroke" d="
  M 647.61 515.17
  Q 631.87 504.16 616.42 493.26
  Q 609.34 488.26 600.26 481.50
  Q 575.81 463.31 550.74 445.95
  Q 546.01 442.68 544.58 436.78
  C 543.02 430.33 544.84 425.92 549.95 421.93
  Q 554.74 418.20 559.75 414.77
  Q 598.98 387.93 638.42 361.40
  Q 644.32 357.43 647.70 354.62"
/>
<path stroke="#6d7d8a" vector-effect="non-scaling-stroke" d="
  M 647.70 354.62
  L 698.03 320.00
  Q 698.45 319.71 698.22 319.27
  Q 688.49 300.30 675.96 286.52
  C 652.28 260.49 620.46 239.67 586.32 229.27
  Q 491.13 200.28 408.58 253.21
  C 377.52 273.12 352.35 301.56 335.28 334.31
  Q 299.26 403.43 314.19 479.46
  C 328.03 549.98 379.91 608.98 446.87 634.10
  C 538.85 668.62 643.08 638.70 696.99 555.23
  C 698.75 552.51 697.81 550.45 695.30 548.63
  Q 671.47 531.45 647.61 515.17"
/>
<path stroke="#934559" vector-effect="non-scaling-stroke" d="
  M 647.70 354.62
  Q 640.13 342.35 629.45 333.22"
/>
<path stroke="#7c3d55" vector-effect="non-scaling-stroke" d="
  M 629.45 333.22
  Q 624.44 328.16 616.07 323.24
  Q 569.90 296.16 518.94 306.68
  C 491.97 312.25 466.34 328.31 448.44 348.72
  Q 423.66 377.00 417.79 415.76
  Q 410.37 464.76 438.38 506.51"
/>
<path stroke="#934559" vector-effect="non-scaling-stroke" d="
  M 438.38 506.51
  C 466.08 544.92 510.13 566.61 557.50 563.45
  Q 595.70 560.90 626.04 536.79
  Q 638.29 527.05 647.61 515.17"
/>
<path stroke="#e4425a" vector-effect="non-scaling-stroke" d="
  M 629.45 333.22
  Q 624.35 331.86 619.40 329.95
  C 611.34 326.84 604.54 325.20 596.87 324.42
  Q 575.77 322.29 554.54 326.18
  C 519.94 332.51 491.66 354.37 472.24 382.78
  Q 438.63 431.95 457.37 489.84
  Q 463.85 509.85 475.50 527.68
  A 0.45 0.45 0.0 0 1 474.88 528.30
  C 465.74 522.60 456.72 516.32 447.18 511.14
  Q 442.96 508.85 438.98 506.16
  Q 438.66 505.95 438.38 506.51"
/>
<path stroke="#6196a1" vector-effect="non-scaling-stroke" d="
  M 214.51 720.97
  C 228.59 710.02 247.09 710.15 262.61 718.91
  Q 263.35 719.32 263.36 718.48
  L 263.60 699.45
  Q 263.60 698.91 263.11 698.71
  C 239.84 689.30 211.62 693.56 195.28 713.14
  C 170.94 742.31 182.22 786.71 217.45 800.62
  C 231.62 806.21 248.97 805.40 263.85 801.79
  Q 264.45 801.65 264.45 801.03
  L 264.45 782.76
  A 0.45 0.44 -8.7 0 0 263.87 782.34
  C 240.08 790.15 212.50 787.45 202.68 760.45
  C 197.44 746.05 202.91 730.00 214.51 720.97"
/>
<path stroke="#6d7d8a" vector-effect="non-scaling-stroke" d="
  M 560.24 765.09
  A 0.60 0.60 0.0 0 1 560.84 764.49
  L 605.72 764.55
  A 0.60 0.60 0.0 0 1 606.32 765.15
  L 606.23 802.71
  A 0.60 0.60 0.0 0 0 606.83 803.31
  L 628.09 803.29
  A 0.60 0.60 0.0 0 0 628.69 802.69
  L 628.58 695.12
  A 0.60 0.60 0.0 0 0 627.98 694.52
  L 607.15 694.49
  A 0.60 0.60 0.0 0 0 606.55 695.09
  L 606.44 742.13
  A 0.60 0.60 0.0 0 1 605.84 742.73
  L 560.80 742.73
  A 0.60 0.60 0.0 0 1 560.20 742.13
  L 560.42 695.39
  A 0.60 0.60 0.0 0 0 559.82 694.79
  L 539.87 694.74
  A 0.60 0.60 0.0 0 0 539.27 695.34
  L 538.73 803.14
  A 0.60 0.60 0.0 0 0 539.33 803.74
  L 559.63 803.75
  A 0.60 0.60 0.0 0 0 560.23 803.15
  L 560.24 765.09"
/>
<path stroke="#6196a1" vector-effect="non-scaling-stroke" d="
  M 486.92 726.13
  A 0.64 0.64 0.0 0 1 486.28 726.77
  L 469.20 726.89
  A 0.64 0.64 0.0 0 0 468.57 727.52
  L 468.53 745.84
  A 0.64 0.64 0.0 0 0 469.17 746.48
  L 486.29 746.48
  A 0.64 0.64 0.0 0 1 486.93 747.12
  L 486.77 802.68
  A 0.64 0.64 0.0 0 0 487.41 803.32
  L 505.76 803.47
  A 0.64 0.64 0.0 0 0 506.40 802.83
  L 506.55 747.02
  A 0.64 0.64 0.0 0 1 507.19 746.38
  L 524.39 746.34
  A 0.64 0.64 0.0 0 0 525.03 745.70
  L 525.13 728.24
  A 0.64 0.64 0.0 0 0 524.49 727.60
  L 506.66 727.63
  A 0.64 0.64 0.0 0 1 506.02 726.99
  L 505.94 695.88
  A 0.64 0.64 0.0 0 0 505.31 695.25
  L 487.44 695.14
  A 0.64 0.64 0.0 0 0 486.79 695.79
  L 486.92 726.13"
/>
<path stroke="#6d7d8a" vector-effect="non-scaling-stroke" d="
  M 774.35 792.34
  C 778.87 798.39 784.07 802.26 791.68 803.82
  C 816.45 808.90 842.73 792.30 842.80 765.72
  C 842.88 738.15 817.31 720.58 791.48 726.26
  C 786.09 727.45 780.99 729.74 776.81 733.08
  Q 775.62 734.03 775.63 732.51
  L 775.84 695.53
  A 0.56 0.55 0.5 0 0 775.28 694.97
  L 754.87 695.00
  A 0.63 0.63 0.0 0 0 754.24 695.63
  L 754.08 802.53
  Q 754.08 802.98 754.53 802.98
  L 773.34 803.06
  Q 773.98 803.06 773.97 802.42
  L 773.87 792.50
  Q 773.86 791.69 774.35 792.34"
/>
<path stroke="#6196a1" vector-effect="non-scaling-stroke" d="
  M 303.37 732.51
  L 303.49 697.03
  A 0.64 0.64 0.0 0 0 302.86 696.39
  L 285.20 696.14
  Q 284.79 696.14 284.80 696.55
  L 284.83 802.71
  Q 284.83 803.35 285.46 803.37
  L 302.80 803.82
  A 0.65 0.64 -89.1 0 0 303.46 803.17
  Q 303.55 783.44 303.57 763.68
  C 303.58 755.94 303.19 751.35 309.29 747.29
  C 315.69 743.02 323.02 742.51 330.03 745.93
  Q 342.84 752.17 342.78 768.25
  Q 342.71 785.56 342.98 802.92
  Q 342.99 803.44 343.50 803.44
  L 361.23 803.53
  A 0.42 0.42 0.0 0 0 361.65 803.11
  Q 361.41 785.64 361.52 768.25
  Q 361.61 754.46 354.80 743.28
  C 344.11 725.74 320.68 719.81 303.74 732.69
  A 0.23 0.23 0.0 0 1 303.37 732.51"
/>
<path stroke="#6196a1" vector-effect="non-scaling-stroke" d="
  M 438.56 795.26
  L 438.30 802.22
  Q 438.24 803.71 439.72 803.71
  L 456.62 803.80
  Q 456.90 803.80 456.90 803.52
  L 457.28 726.26
  Q 457.28 725.74 456.76 725.74
  L 437.24 725.71
  Q 436.70 725.71 436.70 726.26
  L 436.70 732.79
  A 0.50 0.50 0.0 0 1 435.86 733.16
  C 424.01 722.18 406.11 722.39 393.03 730.77
  C 376.12 741.61 369.89 760.29 376.34 778.93
  C 381.24 793.07 392.95 802.23 407.74 804.36
  C 419.24 806.02 429.76 803.91 438.03 795.03
  A 0.31 0.31 0.0 0 1 438.56 795.26"
/>
<path stroke="#6d7d8a" vector-effect="non-scaling-stroke" d="
  M 727.48 783.01
  Q 730.66 776.59 730.85 771.49
  Q 731.34 758.31 730.97 727.04
  Q 730.96 726.53 730.44 726.52
  L 710.53 726.34
  Q 709.96 726.34 709.95 726.91
  Q 709.73 744.39 709.85 761.88
  Q 709.89 768.74 709.00 771.54
  C 705.48 782.65 693.20 786.49 683.17 781.66
  Q 672.53 776.53 672.61 763.00
  Q 672.73 744.81 672.67 726.59
  A 0.68 0.68 0.0 0 0 671.99 725.91
  L 651.71 726.02
  Q 651.12 726.02 651.12 726.62
  Q 651.17 743.81 651.16 761.00
  Q 651.16 769.64 653.32 778.00
  C 657.89 795.65 676.59 805.84 693.64 804.83
  C 708.58 803.94 720.78 796.55 727.48 783.01"
/>
<path stroke="#6d7d8a" vector-effect="non-scaling-stroke" d="
  M 821.6181 766.8268
  A 22.26 19.14 6.0 0 0 801.4807 745.4649
  A 22.26 19.14 6.0 0 0 777.3419 762.1732
  A 22.26 19.14 6.0 0 0 797.4793 783.5351
  A 22.26 19.14 6.0 0 0 821.6181 766.8268"
/>
<path stroke="#6196a1" vector-effect="non-scaling-stroke" d="
  M 438.6430 762.8767
  A 22.87 21.70 -5.0 0 0 413.9687 743.2526
  A 22.87 21.70 -5.0 0 0 393.0770 766.8633
  A 22.87 21.70 -5.0 0 0 417.7513 786.4874
  A 22.87 21.70 -5.0 0 0 438.6430 762.8767"
/>
</g>
<path fill="#afbbc1" d="
  M 0.00 0.00
  L 1024.00 0.00
  L 1024.00 1024.00
  L 0.00 1024.00
  L 0.00 0.00
  Z
  M 647.61 515.17
  Q 631.87 504.16 616.42 493.26
  Q 609.34 488.26 600.26 481.50
  Q 575.81 463.31 550.74 445.95
  Q 546.01 442.68 544.58 436.78
  C 543.02 430.33 544.84 425.92 549.95 421.93
  Q 554.74 418.20 559.75 414.77
  Q 598.98 387.93 638.42 361.40
  Q 644.32 357.43 647.70 354.62
  L 698.03 320.00
  Q 698.45 319.71 698.22 319.27
  Q 688.49 300.30 675.96 286.52
  C 652.28 260.49 620.46 239.67 586.32 229.27
  Q 491.13 200.28 408.58 253.21
  C 377.52 273.12 352.35 301.56 335.28 334.31
  Q 299.26 403.43 314.19 479.46
  C 328.03 549.98 379.91 608.98 446.87 634.10
  C 538.85 668.62 643.08 638.70 696.99 555.23
  C 698.75 552.51 697.81 550.45 695.30 548.63
  Q 671.47 531.45 647.61 515.17
  Z
  M 214.51 720.97
  C 228.59 710.02 247.09 710.15 262.61 718.91
  Q 263.35 719.32 263.36 718.48
  L 263.60 699.45
  Q 263.60 698.91 263.11 698.71
  C 239.84 689.30 211.62 693.56 195.28 713.14
  C 170.94 742.31 182.22 786.71 217.45 800.62
  C 231.62 806.21 248.97 805.40 263.85 801.79
  Q 264.45 801.65 264.45 801.03
  L 264.45 782.76
  A 0.45 0.44 -8.7 0 0 263.87 782.34
  C 240.08 790.15 212.50 787.45 202.68 760.45
  C 197.44 746.05 202.91 730.00 214.51 720.97
  Z
  M 560.24 765.09
  A 0.60 0.60 0.0 0 1 560.84 764.49
  L 605.72 764.55
  A 0.60 0.60 0.0 0 1 606.32 765.15
  L 606.23 802.71
  A 0.60 0.60 0.0 0 0 606.83 803.31
  L 628.09 803.29
  A 0.60 0.60 0.0 0 0 628.69 802.69
  L 628.58 695.12
  A 0.60 0.60 0.0 0 0 627.98 694.52
  L 607.15 694.49
  A 0.60 0.60 0.0 0 0 606.55 695.09
  L 606.44 742.13
  A 0.60 0.60 0.0 0 1 605.84 742.73
  L 560.80 742.73
  A 0.60 0.60 0.0 0 1 560.20 742.13
  L 560.42 695.39
  A 0.60 0.60 0.0 0 0 559.82 694.79
  L 539.87 694.74
  A 0.60 0.60 0.0 0 0 539.27 695.34
  L 538.73 803.14
  A 0.60 0.60 0.0 0 0 539.33 803.74
  L 559.63 803.75
  A 0.60 0.60 0.0 0 0 560.23 803.15
  L 560.24 765.09
  Z
  M 486.92 726.13
  A 0.64 0.64 0.0 0 1 486.28 726.77
  L 469.20 726.89
  A 0.64 0.64 0.0 0 0 468.57 727.52
  L 468.53 745.84
  A 0.64 0.64 0.0 0 0 469.17 746.48
  L 486.29 746.48
  A 0.64 0.64 0.0 0 1 486.93 747.12
  L 486.77 802.68
  A 0.64 0.64 0.0 0 0 487.41 803.32
  L 505.76 803.47
  A 0.64 0.64 0.0 0 0 506.40 802.83
  L 506.55 747.02
  A 0.64 0.64 0.0 0 1 507.19 746.38
  L 524.39 746.34
  A 0.64 0.64 0.0 0 0 525.03 745.70
  L 525.13 728.24
  A 0.64 0.64 0.0 0 0 524.49 727.60
  L 506.66 727.63
  A 0.64 0.64 0.0 0 1 506.02 726.99
  L 505.94 695.88
  A 0.64 0.64 0.0 0 0 505.31 695.25
  L 487.44 695.14
  A 0.64 0.64 0.0 0 0 486.79 695.79
  L 486.92 726.13
  Z
  M 774.35 792.34
  C 778.87 798.39 784.07 802.26 791.68 803.82
  C 816.45 808.90 842.73 792.30 842.80 765.72
  C 842.88 738.15 817.31 720.58 791.48 726.26
  C 786.09 727.45 780.99 729.74 776.81 733.08
  Q 775.62 734.03 775.63 732.51
  L 775.84 695.53
  A 0.56 0.55 0.5 0 0 775.28 694.97
  L 754.87 695.00
  A 0.63 0.63 0.0 0 0 754.24 695.63
  L 754.08 802.53
  Q 754.08 802.98 754.53 802.98
  L 773.34 803.06
  Q 773.98 803.06 773.97 802.42
  L 773.87 792.50
  Q 773.86 791.69 774.35 792.34
  Z
  M 303.37 732.51
  L 303.49 697.03
  A 0.64 0.64 0.0 0 0 302.86 696.39
  L 285.20 696.14
  Q 284.79 696.14 284.80 696.55
  L 284.83 802.71
  Q 284.83 803.35 285.46 803.37
  L 302.80 803.82
  A 0.65 0.64 -89.1 0 0 303.46 803.17
  Q 303.55 783.44 303.57 763.68
  C 303.58 755.94 303.19 751.35 309.29 747.29
  C 315.69 743.02 323.02 742.51 330.03 745.93
  Q 342.84 752.17 342.78 768.25
  Q 342.71 785.56 342.98 802.92
  Q 342.99 803.44 343.50 803.44
  L 361.23 803.53
  A 0.42 0.42 0.0 0 0 361.65 803.11
  Q 361.41 785.64 361.52 768.25
  Q 361.61 754.46 354.80 743.28
  C 344.11 725.74 320.68 719.81 303.74 732.69
  A 0.23 0.23 0.0 0 1 303.37 732.51
  Z
  M 438.56 795.26
  L 438.30 802.22
  Q 438.24 803.71 439.72 803.71
  L 456.62 803.80
  Q 456.90 803.80 456.90 803.52
  L 457.28 726.26
  Q 457.28 725.74 456.76 725.74
  L 437.24 725.71
  Q 436.70 725.71 436.70 726.26
  L 436.70 732.79
  A 0.50 0.50 0.0 0 1 435.86 733.16
  C 424.01 722.18 406.11 722.39 393.03 730.77
  C 376.12 741.61 369.89 760.29 376.34 778.93
  C 381.24 793.07 392.95 802.23 407.74 804.36
  C 419.24 806.02 429.76 803.91 438.03 795.03
  A 0.31 0.31 0.0 0 1 438.56 795.26
  Z
  M 727.48 783.01
  Q 730.66 776.59 730.85 771.49
  Q 731.34 758.31 730.97 727.04
  Q 730.96 726.53 730.44 726.52
  L 710.53 726.34
  Q 709.96 726.34 709.95 726.91
  Q 709.73 744.39 709.85 761.88
  Q 709.89 768.74 709.00 771.54
  C 705.48 782.65 693.20 786.49 683.17 781.66
  Q 672.53 776.53 672.61 763.00
  Q 672.73 744.81 672.67 726.59
  A 0.68 0.68 0.0 0 0 671.99 725.91
  L 651.71 726.02
  Q 651.12 726.02 651.12 726.62
  Q 651.17 743.81 651.16 761.00
  Q 651.16 769.64 653.32 778.00
  C 657.89 795.65 676.59 805.84 693.64 804.83
  C 708.58 803.94 720.78 796.55 727.48 783.01
  Z"
/>
<path fill="#2a3f53" d="
  M 647.70 354.62
  Q 640.13 342.35 629.45 333.22
  Q 624.44 328.16 616.07 323.24
  Q 569.90 296.16 518.94 306.68
  C 491.97 312.25 466.34 328.31 448.44 348.72
  Q 423.66 377.00 417.79 415.76
  Q 410.37 464.76 438.38 506.51
  C 466.08 544.92 510.13 566.61 557.50 563.45
  Q 595.70 560.90 626.04 536.79
  Q 638.29 527.05 647.61 515.17
  Q 671.47 531.45 695.30 548.63
  C 697.81 550.45 698.75 552.51 696.99 555.23
  C 643.08 638.70 538.85 668.62 446.87 634.10
  C 379.91 608.98 328.03 549.98 314.19 479.46
  Q 299.26 403.43 335.28 334.31
  C 352.35 301.56 377.52 273.12 408.58 253.21
  Q 491.13 200.28 586.32 229.27
  C 620.46 239.67 652.28 260.49 675.96 286.52
  Q 688.49 300.30 698.22 319.27
  Q 698.45 319.71 698.03 320.00
  L 647.70 354.62
  Z"
/>
<path fill="#cd3a56" d="
  M 629.45 333.22
  Q 624.35 331.86 619.40 329.95
  C 611.34 326.84 604.54 325.20 596.87 324.42
  Q 575.77 322.29 554.54 326.18
  C 519.94 332.51 491.66 354.37 472.24 382.78
  Q 438.63 431.95 457.37 489.84
  Q 463.85 509.85 475.50 527.68
  A 0.45 0.45 0.0 0 1 474.88 528.30
  C 465.74 522.60 456.72 516.32 447.18 511.14
  Q 442.96 508.85 438.98 506.16
  Q 438.66 505.95 438.38 506.51
  Q 410.37 464.76 417.79 415.76
  Q 423.66 377.00 448.44 348.72
  C 466.34 328.31 491.97 312.25 518.94 306.68
  Q 569.90 296.16 616.07 323.24
  Q 624.44 328.16 629.45 333.22
  Z"
/>
<path fill="#fb4a5e" d="
  M 629.45 333.22
  Q 640.13 342.35 647.70 354.62
  Q 644.32 357.43 638.42 361.40
  Q 598.98 387.93 559.75 414.77
  Q 554.74 418.20 549.95 421.93
  C 544.84 425.92 543.02 430.33 544.58 436.78
  Q 546.01 442.68 550.74 445.95
  Q 575.81 463.31 600.26 481.50
  Q 609.34 488.26 616.42 493.26
  Q 631.87 504.16 647.61 515.17
  Q 638.29 527.05 626.04 536.79
  Q 595.70 560.90 557.50 563.45
  C 510.13 566.61 466.08 544.92 438.38 506.51
  Q 438.66 505.95 438.98 506.16
  Q 442.96 508.85 447.18 511.14
  C 456.72 516.32 465.74 522.60 474.88 528.30
  A 0.45 0.45 0.0 0 0 475.50 527.68
  Q 463.85 509.85 457.37 489.84
  Q 438.63 431.95 472.24 382.78
  C 491.66 354.37 519.94 332.51 554.54 326.18
  Q 575.77 322.29 596.87 324.42
  C 604.54 325.20 611.34 326.84 619.40 329.95
  Q 624.35 331.86 629.45 333.22
  Z"
/>
<path fill="#137180" d="
  M 214.51 720.97
  C 202.91 730.00 197.44 746.05 202.68 760.45
  C 212.50 787.45 240.08 790.15 263.87 782.34
  A 0.45 0.44 -8.7 0 1 264.45 782.76
  L 264.45 801.03
  Q 264.45 801.65 263.85 801.79
  C 248.97 805.40 231.62 806.21 217.45 800.62
  C 182.22 786.71 170.94 742.31 195.28 713.14
  C 211.62 693.56 239.84 689.30 263.11 698.71
  Q 263.60 698.91 263.60 699.45
  L 263.36 718.48
  Q 263.35 719.32 262.61 718.91
  C 247.09 710.15 228.59 710.02 214.51 720.97
  Z"
/>
<path fill="#2a3f53" d="
  M 560.24 765.09
  L 560.23 803.15
  A 0.60 0.60 0.0 0 1 559.63 803.75
  L 539.33 803.74
  A 0.60 0.60 0.0 0 1 538.73 803.14
  L 539.27 695.34
  A 0.60 0.60 0.0 0 1 539.87 694.74
  L 559.82 694.79
  A 0.60 0.60 0.0 0 1 560.42 695.39
  L 560.20 742.13
  A 0.60 0.60 0.0 0 0 560.80 742.73
  L 605.84 742.73
  A 0.60 0.60 0.0 0 0 606.44 742.13
  L 606.55 695.09
  A 0.60 0.60 0.0 0 1 607.15 694.49
  L 627.98 694.52
  A 0.60 0.60 0.0 0 1 628.58 695.12
  L 628.69 802.69
  A 0.60 0.60 0.0 0 1 628.09 803.29
  L 606.83 803.31
  A 0.60 0.60 0.0 0 1 606.23 802.71
  L 606.32 765.15
  A 0.60 0.60 0.0 0 0 605.72 764.55
  L 560.84 764.49
  A 0.60 0.60 0.0 0 0 560.24 765.09
  Z"
/>
<path fill="#137180" d="
  M 486.92 726.13
  L 486.79 695.79
  A 0.64 0.64 0.0 0 1 487.44 695.14
  L 505.31 695.25
  A 0.64 0.64 0.0 0 1 505.94 695.88
  L 506.02 726.99
  A 0.64 0.64 0.0 0 0 506.66 727.63
  L 524.49 727.60
  A 0.64 0.64 0.0 0 1 525.13 728.24
  L 525.03 745.70
  A 0.64 0.64 0.0 0 1 524.39 746.34
  L 507.19 746.38
  A 0.64 0.64 0.0 0 0 506.55 747.02
  L 506.40 802.83
  A 0.64 0.64 0.0 0 1 505.76 803.47
  L 487.41 803.32
  A 0.64 0.64 0.0 0 1 486.77 802.68
  L 486.93 747.12
  A 0.64 0.64 0.0 0 0 486.29 746.48
  L 469.17 746.48
  A 0.64 0.64 0.0 0 1 468.53 745.84
  L 468.57 727.52
  A 0.64 0.64 0.0 0 1 469.20 726.89
  L 486.28 726.77
  A 0.64 0.64 0.0 0 0 486.92 726.13
  Z"
/>
<path fill="#2a3f53" d="
  M 773.87 792.50
  L 773.97 802.42
  Q 773.98 803.06 773.34 803.06
  L 754.53 802.98
  Q 754.08 802.98 754.08 802.53
  L 754.24 695.63
  A 0.63 0.63 0.0 0 1 754.87 695.00
  L 775.28 694.97
  A 0.56 0.55 0.5 0 1 775.84 695.53
  L 775.63 732.51
  Q 775.62 734.03 776.81 733.08
  C 780.99 729.74 786.09 727.45 791.48 726.26
  C 817.31 720.58 842.88 738.15 842.80 765.72
  C 842.73 792.30 816.45 808.90 791.68 803.82
  C 784.07 802.26 778.87 798.39 774.35 792.34
  Q 773.86 791.69 773.87 792.50
  Z
  M 821.6181 766.8268
  A 22.26 19.14 6.0 0 0 801.4807 745.4649
  A 22.26 19.14 6.0 0 0 777.3419 762.1732
  A 22.26 19.14 6.0 0 0 797.4793 783.5351
  A 22.26 19.14 6.0 0 0 821.6181 766.8268
  Z"
/>
<path fill="#137180" d="
  M 303.37 732.51
  A 0.23 0.23 0.0 0 0 303.74 732.69
  C 320.68 719.81 344.11 725.74 354.80 743.28
  Q 361.61 754.46 361.52 768.25
  Q 361.41 785.64 361.65 803.11
  A 0.42 0.42 0.0 0 1 361.23 803.53
  L 343.50 803.44
  Q 342.99 803.44 342.98 802.92
  Q 342.71 785.56 342.78 768.25
  Q 342.84 752.17 330.03 745.93
  C 323.02 742.51 315.69 743.02 309.29 747.29
  C 303.19 751.35 303.58 755.94 303.57 763.68
  Q 303.55 783.44 303.46 803.17
  A 0.65 0.64 -89.1 0 1 302.80 803.82
  L 285.46 803.37
  Q 284.83 803.35 284.83 802.71
  L 284.80 696.55
  Q 284.79 696.14 285.20 696.14
  L 302.86 696.39
  A 0.64 0.64 0.0 0 1 303.49 697.03
  L 303.37 732.51
  Z"
/>
<path fill="#137180" d="
  M 438.03 795.03
  C 429.76 803.91 419.24 806.02 407.74 804.36
  C 392.95 802.23 381.24 793.07 376.34 778.93
  C 369.89 760.29 376.12 741.61 393.03 730.77
  C 406.11 722.39 424.01 722.18 435.86 733.16
  A 0.50 0.50 0.0 0 0 436.70 732.79
  L 436.70 726.26
  Q 436.70 725.71 437.24 725.71
  L 456.76 725.74
  Q 457.28 725.74 457.28 726.26
  L 456.90 803.52
  Q 456.90 803.80 456.62 803.80
  L 439.72 803.71
  Q 438.24 803.71 438.30 802.22
  L 438.56 795.26
  A 0.31 0.31 0.0 0 0 438.03 795.03
  Z
  M 438.6430 762.8767
  A 22.87 21.70 -5.0 0 0 413.9687 743.2526
  A 22.87 21.70 -5.0 0 0 393.0770 766.8633
  A 22.87 21.70 -5.0 0 0 417.7513 786.4874
  A 22.87 21.70 -5.0 0 0 438.6430 762.8767
  Z"
/>
<path fill="#2a3f53" d="
  M 727.48 783.01
  C 720.78 796.55 708.58 803.94 693.64 804.83
  C 676.59 805.84 657.89 795.65 653.32 778.00
  Q 651.16 769.64 651.16 761.00
  Q 651.17 743.81 651.12 726.62
  Q 651.12 726.02 651.71 726.02
  L 671.99 725.91
  A 0.68 0.68 0.0 0 1 672.67 726.59
  Q 672.73 744.81 672.61 763.00
  Q 672.53 776.53 683.17 781.66
  C 693.20 786.49 705.48 782.65 709.00 771.54
  Q 709.89 768.74 709.85 761.88
  Q 709.73 744.39 709.95 726.91
  Q 709.96 726.34 710.53 726.34
  L 730.44 726.52
  Q 730.96 726.53 730.97 727.04
  Q 731.34 758.31 730.85 771.49
  Q 730.66 776.59 727.48 783.01
  Z"
/>
<ellipse fill="#afbbc1" cx="0.00" cy="0.00" transform="translate(415.86,764.87) rotate(-5.0)" rx="22.87" ry="21.70"/>
<ellipse fill="#afbbc1" cx="0.00" cy="0.00" transform="translate(799.48,764.50) rotate(6.0)" rx="22.26" ry="19.14"/>
</svg>
